<svg width="423" height="369" viewBox="0 0 423 369" fill="none" xmlns="http://www.w3.org/2000/svg">
<g clip-path="url(#clip0_2_2)">
<rect width="423" height="369" fill="white"/>
<rect width="423" height="846" fill="#E6BA01"/>
<g clip-path="url(#clip1_2_2)">
<path d="M264.569 401.312H149.974L153.943 248.118L197.598 240.705L264.569 401.312Z" fill="#D7A503"/>
<path d="M208.649 401.312C192.056 377.607 179.677 290.361 175.561 249.701L141.979 199.823L129.139 192.909V182.044C134.571 175.953 146.819 162.29 152.35 156.364C159.264 148.956 144.448 83.2749 145.436 78.3364C146.226 74.3857 143.461 64.1795 141.979 59.5703C149.716 55.9487 168.548 48.4093 181.981 47.2241C198.772 45.7426 213.588 42.2856 251.121 69.941C281.147 92.0653 276.472 121.959 270.381 134.141C279.764 132.659 353.842 181.056 354.336 188.958C354.731 195.279 360.098 201.469 362.732 203.773L377.054 215.132L373.597 220.07L395.82 251.676C398.289 262.376 406.586 288.024 420.019 305.012C433.452 322 440.102 349.293 441.748 360.816C448.86 364.767 456.235 388.472 459.033 399.83L368.164 401.312L346.435 365.261L353.842 401.312H208.649Z" fill="#D2200E"/>
<path d="M116.587 386.498C113.038 388.078 110.682 397.362 109.532 401.312H164.89C168.505 385.675 173.269 335.835 169.326 265.52C165.383 195.204 132.524 192.768 116.587 200.339C103.969 182.563 74.1984 166.597 60.8904 160.836L55.9616 167.255L42.6536 183.551L54.4829 198.364L53.0042 222.56L45.118 237.867C43.3107 245.768 37.2318 264.137 27.374 274.408C17.5162 284.679 17.3519 295.147 18.502 299.097L113.63 343.538C107.715 375.635 121.023 384.523 116.587 386.498Z" fill="#D2200E"/>
<path d="M195.764 103.243C197.3 90.6452 179.768 80.2784 170.81 76.6698C228.397 44.6837 225.518 70.7646 224.078 75.6856C222.638 80.6065 193.845 118.99 195.764 103.243Z" fill="url(#paint0_linear_2_2)" fill-opacity="0.5"/>
<path fill-rule="evenodd" clip-rule="evenodd" d="M94.5329 332.653L143.317 199.524L20.5115 282.451C17.5493 288.951 17.7287 294.546 18.5024 297.199L94.5329 332.653Z" fill="#BC0B01"/>
<path d="M324.765 341.513C264.214 315.023 260.544 239.541 266.278 205.112C261.527 217.796 255.76 253.445 270.701 294.563C285.643 335.681 285.016 382.697 282.722 401.312H353.988L324.765 341.513Z" fill="url(#paint1_radial_2_2)" fill-opacity="0.5"/>
<path d="M89.7907 223.342L42.3246 184.387L60.6188 161.704L116.985 202.139L89.7907 223.342Z" fill="url(#paint2_linear_2_2)"/>
<path d="M99.9151 199.723C107.035 210.395 126.284 208.122 135.019 205.652C138.579 204.825 142.765 202.343 144.413 201.205C170.024 168.72 151.969 86.7144 146.454 61.6634L146.391 61.3759C140.952 36.6711 108.32 22.3424 87.0602 24.8128C65.8001 27.2833 40.0902 60.3877 34.6515 84.1043C30.3006 103.078 41.079 124.949 47.0121 133.514C47.6713 136.149 49.7808 141.419 52.9451 141.419C56.1094 141.419 57.8893 146.031 58.3838 148.337C57.8893 163.16 72.2275 174.524 77.6662 176.006C83.1048 177.488 91.0155 186.382 99.9151 199.723Z" fill="#BE5B01"/>
<path fill-rule="evenodd" clip-rule="evenodd" d="M77.7871 80.1436C81.7335 76.3616 90.9091 70.1788 96.0395 75.7038C101.17 81.2289 104.426 90.8319 105.412 94.9428L134.024 88.5298L149.852 75.5427C148.515 68.7991 147.267 63.1257 146.359 58.9997L146.296 58.7127C140.87 34.0473 108.311 19.7414 87.0991 22.208C65.8869 24.6745 40.2349 57.7261 34.8085 81.4048C33.7905 85.8469 33.6026 90.4482 33.9878 95C35.2057 95.0473 36.3193 95.1132 36.9132 95.1547C41.2244 96.4941 54.4496 95.2001 77.7871 80.1436Z" fill="#945303"/>
<path d="M66.6326 140.869C67.6413 151.576 70.6672 172.99 74.7019 172.99C79.7451 172.99 79.7451 165.578 85.2927 165.083C90.8404 164.589 94.875 165.578 94.3706 162.118" stroke="black" stroke-opacity="0.5" stroke-width="0.783333"/>
<path d="M79.6548 137.396C85.6353 125.268 99.2577 122.357 106.567 120.902L105.072 121.872C99.0915 121.872 86.2998 132.868 79.6548 137.396Z" fill="black" fill-opacity="0.5"/>
<path d="M58.8473 144.396C56.0244 144.786 51.286 141.629 49.2697 140.001C58.8473 143.419 64.8963 138.047 64.8963 141.466C64.8963 144.2 60.8636 146.837 58.8473 147.814V144.396Z" fill="black" fill-opacity="0.5"/>
<path d="M89.2043 133.428C92.0525 134.602 99.8597 134.434 108.303 124.374" stroke="black" stroke-opacity="0.5" stroke-width="0.783333" stroke-linecap="round"/>
<mask id="mask0_2_2" style="mask-type:alpha" maskUnits="userSpaceOnUse" x="33" y="24" width="125" height="184">
<path d="M99.9251 199.799C107.029 210.454 126.235 208.185 134.95 205.718C138.502 204.892 142.678 202.414 144.323 201.279C169.876 168.845 151.862 86.9706 146.359 61.9596L146.296 61.6726C140.87 37.0072 108.311 22.7013 87.0991 25.1678C65.8869 27.6344 40.2349 60.686 34.8085 84.3647C30.4674 103.308 41.2215 125.145 47.1412 133.695C47.7989 136.326 49.9037 141.588 53.0609 141.588C56.218 141.588 57.9939 146.193 58.4873 148.495C57.9939 163.294 72.2999 174.64 77.7262 176.12C83.1526 177.6 91.0455 186.479 99.9251 199.799Z" fill="#BE5B01"/>
</mask>
<g mask="url(#mask0_2_2)">
<path d="M89.5461 175.352C87.1782 174.957 86.2574 179.134 86.093 181.272L91.5193 192.124L101.385 205.937L122.104 219.75L161.076 208.403V167.459L159.596 138.847L129.504 179.298C127.531 171.405 121.776 167.459 119.145 166.472C117.336 167.788 113.028 170.616 110.265 171.405C106.812 172.392 97.439 171.405 96.4524 173.379C95.4658 175.352 92.506 175.845 89.5461 175.352Z" fill="#2C0C01"/>
</g>
<path d="M192.305 203.18C185.938 207.907 178.378 220.906 175.394 226.815L156.992 193.332L150.526 159.356C143.729 148.688 131.129 126.07 135.108 120.949C139.087 115.828 145.387 123.739 148.04 128.335C148.04 125.381 147.443 116.715 145.055 105.685C142.668 94.655 142.734 90.2562 143.066 89.4356C149.432 84.7085 154.008 94.6878 155.5 100.268C154.704 95.1474 153.842 84.0192 153.511 79.0952C155.997 74.6636 157.987 75.156 161.966 77.618C165.944 80.08 166.442 93.8672 166.939 101.746C167.337 108.048 169.426 112.907 170.421 114.548C170.587 110.445 170.719 100.761 169.923 94.852C168.929 87.466 169.426 81.0648 175.394 82.542C181.363 84.0192 181.363 106.177 184.844 125.873C187.629 141.63 200.594 157.715 206.728 163.788L199.765 155.417C199.268 150.165 198.571 136.903 199.765 125.873C201.257 112.086 216.178 116.025 213.691 125.873C211.204 135.721 215.68 146.062 213.691 167.235C211.702 188.408 200.262 197.271 192.305 203.18Z" fill="#D66F01"/>
<path d="M178.222 225.678L185.624 217.802C191.545 217.802 194.999 226.662 195.986 231.093C167.531 271.292 105.884 353.07 86.9362 358.583C63.2512 365.474 34.1384 337.416 20.8156 311.82C10.1574 291.343 32.4936 277.035 44.9941 272.441L154.537 191.221C161.643 204.216 173.288 219.607 178.222 225.678Z" fill="#D2200E"/>
<path d="M76.7348 43.4964C85.6852 54.9183 78.9081 74.3146 74.4008 82.585L78.2591 83.55C90.9046 67.2866 82.5119 50.0712 76.7348 43.4964Z" fill="#BE5B01"/>
<path d="M65.643 127.847C65.762 128.428 65.9035 129.073 66.0645 129.756C68.067 135.708 75.2341 133.176 80.1476 130.198C80.9499 129.342 81.6728 128.799 82.2592 128.799C81.6294 129.256 80.916 129.732 80.1476 130.198C77.5053 133.019 74.0027 139.244 71.6852 140.705C69.5539 142.049 67.266 134.85 66.0645 129.756C65.8763 129.197 65.7338 128.563 65.643 127.847Z" fill="#9A3D00" fill-opacity="0.2"/>
<path d="M64.1324 137.847C61.7155 137.847 58.4258 131.18 57.0831 127.847C63.5282 140.8 64.4681 133.244 64.1324 127.847C64.938 130.133 64.4681 135.466 64.1324 137.847Z" fill="#9A3D00" fill-opacity="0.2"/>
<path d="M101.239 190.743L96.0781 183.332C95.7288 182.831 96.0594 182.124 96.6609 182.015C102.948 180.884 113.576 174.946 118.904 171.615C119.233 171.408 119.664 171.473 119.918 171.767L124.486 177.071C124.678 177.294 124.733 177.606 124.6 177.868C121.842 183.283 108.901 188.755 102.122 191.038C101.794 191.149 101.437 191.027 101.239 190.743Z" fill="#BE5B01"/>
<circle cx="62.0089" cy="191.259" r="3.82357" transform="rotate(-18.1764 62.0089 191.259)" fill="#F97F23" fill-opacity="0.5"/>
<circle cx="80.2417" cy="208.269" r="3.82357" transform="rotate(-18.1764 80.2417 208.269)" fill="#F97F23" fill-opacity="0.5"/>
</g>
</g>
<defs>
<linearGradient id="paint0_linear_2_2" x1="205.198" y1="77.0038" x2="192.209" y2="86.4629" gradientUnits="userSpaceOnUse">
<stop stop-color="#670100"/>
<stop offset="1" stop-color="#670100" stop-opacity="0"/>
</linearGradient>
<radialGradient id="paint1_radial_2_2" cx="0" cy="0" r="1" gradientUnits="userSpaceOnUse" gradientTransform="translate(270.435 281.714) rotate(67.6738) scale(107.386 50.9233)">
<stop stop-color="#810101"/>
<stop offset="1" stop-color="#810101" stop-opacity="0"/>
</radialGradient>
<linearGradient id="paint2_linear_2_2" x1="55.6744" y1="172.553" x2="95.6081" y2="215.56" gradientUnits="userSpaceOnUse">
<stop stop-color="#8E0809"/>
<stop offset="1" stop-color="#8E0809" stop-opacity="0"/>
</linearGradient>
<clipPath id="clip0_2_2">
<rect width="423" height="369" fill="white"/>
</clipPath>
<clipPath id="clip1_2_2">
<rect width="422.217" height="394.017" fill="white"/>
</clipPath>
</defs>
</svg>
